<?xml version="1.0" encoding="UTF-8"?>
<svg xmlns="http://www.w3.org/2000/svg" xmlns:xlink="http://www.w3.org/1999/xlink" width="50px" height="50px" viewBox="0 0 25 25" version="1.1">

<path fill="#FFF" d="M 22.683594 9.628906 L 21.414062 9.628906 C 21.175781 8.707031 20.808594 7.84375 20.324219 7.054688 L 21.242188 6.136719 C 21.488281 5.890625 21.625 5.558594 21.625 5.210938 C 21.625 4.859375 21.488281 4.53125 21.242188 4.285156 L 19.714844 2.761719 C 19.222656 2.265625 18.359375 2.265625 17.867188 2.761719 L 16.914062 3.707031 C 16.132812 3.253906 15.292969 2.902344 14.371094 2.675781 L 14.371094 1.316406 C 14.371094 0.59375 13.792969 0 13.074219 0 L 10.917969 0 C 10.195312 0 9.628906 0.59375 9.628906 1.316406 L 9.628906 2.675781 C 8.707031 2.902344 7.863281 3.253906 7.082031 3.707031 L 6.128906 2.761719 C 5.632812 2.265625 4.769531 2.265625 4.273438 2.761719 L 2.75 4.285156 C 2.507812 4.527344 2.367188 4.863281 2.367188 5.207031 C 2.367188 5.558594 2.503906 5.886719 2.75 6.132812 L 3.664062 7.054688 C 3.183594 7.84375 2.8125 8.707031 2.578125 9.628906 L 1.304688 9.628906 C 0.582031 9.628906 0 10.207031 0 10.929688 L 0 13.082031 C 0 13.804688 0.582031 14.371094 1.304688 14.371094 L 2.578125 14.371094 C 2.8125 15.292969 3.183594 16.164062 3.664062 16.953125 L 2.75 17.875 C 2.5 18.121094 2.367188 18.449219 2.367188 18.800781 C 2.367188 19.148438 2.503906 19.480469 2.75 19.726562 L 4.273438 21.25 C 4.519531 21.5 4.847656 21.632812 5.199219 21.632812 C 5.546875 21.632812 5.875 21.496094 6.125 21.25 L 7.082031 20.304688 C 7.863281 20.757812 8.707031 21.109375 9.628906 21.335938 L 9.628906 22.695312 C 9.628906 23.417969 10.195312 24 10.917969 24 L 13.074219 24 C 13.792969 24 14.371094 23.417969 14.371094 22.695312 L 14.371094 21.335938 C 15.292969 21.109375 16.132812 20.757812 16.914062 20.304688 L 17.863281 21.25 C 18.109375 21.496094 18.4375 21.632812 18.789062 21.632812 C 19.136719 21.632812 19.46875 21.496094 19.714844 21.25 L 21.238281 19.726562 C 21.484375 19.480469 21.621094 19.152344 21.621094 18.800781 C 21.621094 18.453125 21.484375 18.125 21.238281 17.875 L 20.324219 16.953125 C 20.804688 16.164062 21.175781 15.292969 21.410156 14.371094 L 22.683594 14.371094 C 23.40625 14.371094 24 13.804688 24 13.082031 L 24 10.929688 C 24 10.207031 23.40625 9.628906 22.683594 9.628906 Z M 11.996094 16.105469 C 9.710938 16.105469 7.855469 14.269531 7.855469 12.007812 C 7.855469 9.742188 9.710938 7.90625 11.996094 7.90625 C 14.28125 7.90625 16.136719 9.742188 16.136719 12.007812 C 16.132812 14.269531 14.28125 16.105469 11.996094 16.105469 Z M 11.996094 16.105469 "/>

</svg>
